<svg width="200" height="200" viewBox="0 0 200 200" xmlns="http://www.w3.org/2000/svg">
  <!-- Background circle -->
  <circle cx="100" cy="100" r="90" fill="#3b82f6" opacity="0.1"/>
  
  <!-- Main circle -->
  <circle cx="100" cy="100" r="70" fill="#3b82f6" stroke="#1e40af" stroke-width="3"/>
  
  <!-- Cross symbol (medical) -->
  <rect x="85" y="60" width="30" height="8" rx="4" fill="white"/>
  <rect x="92" y="53" width="8" height="30" rx="4" fill="white"/>
  
  <!-- Heart symbol -->
  <path d="M100 140 Q100 130 90 120 Q80 110 70 120 Q60 130 60 140 Q60 150 70 160 Q80 170 100 180 Q120 170 130 160 Q140 150 140 140 Q140 130 130 120 Q120 110 110 120 Q100 130 100 140" 
        fill="#ef4444" opacity="0.8"/>
  
  <!-- AI/Data visualization dots -->
  <circle cx="40" cy="40" r="3" fill="#10b981"/>
  <circle cx="160" cy="40" r="3" fill="#10b981"/>
  <circle cx="40" cy="160" r="3" fill="#10b981"/>
  <circle cx="160" cy="160" r="3" fill="#10b981"/>
  
  <!-- Connecting lines -->
  <line x1="43" y1="40" x2="157" y2="40" stroke="#10b981" stroke-width="1" opacity="0.6"/>
  <line x1="40" y1="43" x2="40" y2="157" stroke="#10b981" stroke-width="1" opacity="0.6"/>
  <line x1="43" y1="160" x2="157" y2="160" stroke="#10b981" stroke-width="1" opacity="0.6"/>
  <line x1="160" y1="43" x2="160" y2="157" stroke="#10b981" stroke-width="1" opacity="0.6"/>
</svg> 